<mxfile host="app.diagrams.net" modified="2022-03-04T07:53:43.611Z" agent="5.0 (Windows)" etag="forZBmowo4y236ZOvE-o" version="16.6.5" type="github">
  <diagram id="BE8yGBdDcalLDJBySQV9" name="Page-1">
    <mxGraphModel dx="2523" dy="885" grid="1" gridSize="10" guides="1" tooltips="1" connect="1" arrows="1" fold="1" page="1" pageScale="1" pageWidth="850" pageHeight="1100" math="0" shadow="0">
      <root>
        <mxCell id="0" />
        <mxCell id="1" parent="0" />
        <mxCell id="9R2YokqkVL9dI6F5hUa9-1" value="" style="ellipse;whiteSpace=wrap;html=1;" vertex="1" parent="1">
          <mxGeometry x="139.5" y="230" width="512" height="500.33" as="geometry" />
        </mxCell>
        <mxCell id="9R2YokqkVL9dI6F5hUa9-2" value="" style="ellipse;whiteSpace=wrap;html=1;dashed=1;fillColor=none;perimeterSpacing=0;" vertex="1" parent="1">
          <mxGeometry x="-34.5" y="80" width="860" height="751.33" as="geometry" />
        </mxCell>
        <mxCell id="9R2YokqkVL9dI6F5hUa9-4" value="" style="shape=image;html=1;verticalAlign=top;verticalLabelPosition=bottom;labelBackgroundColor=#ffffff;imageAspect=0;aspect=fixed;image=https://cdn2.iconfinder.com/data/icons/web-development-and-studio/512/50_satellite_antenna_radar_space_Signal_space-128.png;dashed=1;fillColor=none;rotation=-100;" vertex="1" parent="1">
          <mxGeometry x="362" y="40" width="70" height="70" as="geometry" />
        </mxCell>
        <mxCell id="9R2YokqkVL9dI6F5hUa9-10" value="" style="ellipse;whiteSpace=wrap;html=1;aspect=fixed;dashed=1;fillColor=default;strokeColor=none;" vertex="1" parent="1">
          <mxGeometry x="530" width="360" height="360" as="geometry" />
        </mxCell>
        <mxCell id="9R2YokqkVL9dI6F5hUa9-3" value="" style="shape=image;html=1;verticalAlign=top;verticalLabelPosition=bottom;labelBackgroundColor=#ffffff;imageAspect=0;aspect=fixed;image=https://cdn2.iconfinder.com/data/icons/web-development-and-studio/512/50_satellite_antenna_radar_space_Signal_space-128.png;dashed=1;fillColor=none;rotation=-100;" vertex="1" parent="1">
          <mxGeometry x="620" y="120" width="70" height="70" as="geometry" />
        </mxCell>
        <mxCell id="9R2YokqkVL9dI6F5hUa9-8" value="" style="shape=image;html=1;verticalAlign=top;verticalLabelPosition=bottom;labelBackgroundColor=#ffffff;imageAspect=0;aspect=fixed;image=https://cdn1.iconfinder.com/data/icons/electronics-glyph-24/24/satellite_dish_dish_antenna_parabolic_antenna_radar_space-128.png;dashed=1;fillColor=none;" vertex="1" parent="1">
          <mxGeometry x="372.25" y="190" width="49.5" height="49.5" as="geometry" />
        </mxCell>
        <mxCell id="9R2YokqkVL9dI6F5hUa9-9" value="" style="ellipse;whiteSpace=wrap;html=1;aspect=fixed;dashed=1;fillColor=default;strokeColor=none;" vertex="1" parent="1">
          <mxGeometry x="-110" y="10" width="360" height="360" as="geometry" />
        </mxCell>
        <mxCell id="9R2YokqkVL9dI6F5hUa9-5" value="" style="shape=image;html=1;verticalAlign=top;verticalLabelPosition=bottom;labelBackgroundColor=#ffffff;imageAspect=0;aspect=fixed;image=https://cdn2.iconfinder.com/data/icons/web-development-and-studio/512/50_satellite_antenna_radar_space_Signal_space-128.png;dashed=1;fillColor=none;rotation=-100;" vertex="1" parent="1">
          <mxGeometry x="100" y="120" width="70" height="70" as="geometry" />
        </mxCell>
        <mxCell id="9R2YokqkVL9dI6F5hUa9-11" value="" style="ellipse;whiteSpace=wrap;html=1;dashed=1;fillColor=default;strokeColor=none;rotation=90;" vertex="1" parent="1">
          <mxGeometry x="-300" y="430" width="605" height="245" as="geometry" />
        </mxCell>
      </root>
    </mxGraphModel>
  </diagram>
</mxfile>
